<svg id="Layer_2" data-name="Layer 2" xmlns="www.w3.org/2000/svg" viewBox="0 0 316.07 257.63">
    <defs></defs>Artboard 1
    <path class="cls-1" d="M74.7,21.84C22.17,23.61,16.84,63,16.84,63s-2.48,38.34-11.71,42.6,0,12.07,0,12.07c0,5.32,4.61,
    8.56,4.61,8.56,32.3,36.6,56.44-.75,60,0s17-8.16,17-10.29-7.45-3.19-8.16-6.39,7.45-16.33,7.45-16.33L89.25,96s15.62-5,
    20.94-7.45S129,63,129,63,127.24,20.06,74.7,21.84ZM43.56,84C30,84,29.46,60.61,45.13,55,85.23,40.71,69.83,84,43.56,84Z"></path>
    <ellipse class="cls-1" cx="106.68" cy="115.04" rx="14.86" ry="5.69" transform="translate(-33.21 44.01) rotate(-20.24)"></ellipse>
    <ellipse class="cls-1" cx="117.24" cy="127.95" rx="14.86" ry="5.69" transform="translate(-48.27 75.76) rotate(-30)"></ellipse>
    <ellipse class="cls-1" cx="104.06" cy="100.49" rx="13.1" ry="5.02" transform="matrix(0.94, -0.35, 0.35, 0.94, -28.34, 42.21)"></ellipse>
    <path class="cls-2" d="M105.54,86.92S97,119.11,121.1,132.52s76.73-27.36,114.82-19.32,46.14,68.68,54.19,72.44,
    21.46-2.15,21.46-8.58" stroke="black" fill="transparent" stroke-width="4"></path>
    <path class="cls-1" d="M148.79,136.87c0-7.73-10.46-17.7-26.49-12.36s-14.51,12.36-14.51,12.36-10.52,21.71,0,21.71,
    6.39-10.79,17.27-16.24S148.79,144.59,148.79,136.87Z"></path>
    <path class="cls-1" d="M128.38,174.47a14.93,14.93,0,0,0,
    1.14-1.19c.33-.41.76-.88,1.19-1.48l.69-.94.69-1.08c.25-.37.47-.78.7-1.21s.49-.84.69-1.31a29.31,29.31,0,0,0,
    1.23-2.94,31.23,31.23,0,0,0,1-3.23c.3-1.11.44-2.27.66-3.4s.2-2.32.18-3.46-.06-2.26-.1-3.34-.07-2.13,
    0-3.13-.08-2-.07-2.85c0-.45,0-.88,0-1.29s-.05-.8,0-1.17c0-.74,0-1.39,0-1.94,0-1.09.1-1.75.1-1.75l.38-.11a16.94,16.94,
    0,0,1,.9,1.51c.27.49.57,1.09.91,1.8a14,14,0,0,1,.9,2.44c.26.92.56,1.92.77,3s.26,2.25.33,3.45a30.09,30.09,0,0,1-.33,3.7c-.2,
    1.25-.54,2.5-.77,3.75s-.68,2.47-1.14,3.64a31.07,31.07,0,0,1-3.26,
    6.29c-.29.46-.64.86-.94,1.27s-.6.8-.92,1.14l-.9,1-.86.85a18.94,18.94,0,0,1-1.47,1.3,15.35,15.35,0,0,1-1.39,1Z"></path>
    <path class="cls-1" d="M135.15,182.18a19.85,19.85,0,0,0,1.56-1.55c.45-.54,1-1.15,1.63-1.93l.94-1.23,
    1-1.43c.35-.48.64-1,1-1.59s.68-1.11,1-1.74a38.37,38.37,0,0,0,1.72-3.9,40.36,40.36,0,0,0,1.4-4.31,19,19,0,0,0,
    .51-2.27l.45-2.3c.1-1.57.33-3.11.33-4.65s0-3-.06-4.5-.11-2.87-.09-4.22c0-.67-.09-1.33-.12-2l-.08-1.85c0-.59,
    0-1.17,0-1.72s-.11-1.06-.13-1.55c-.08-1-.14-1.84-.16-2.55-.06-1.43,0-2.29,0-2.29l.38-.11s.42.72,1,2c.31.66.67,1.47,
    1.06,2.41a18.68,18.68,0,0,1,1.05,3.25c.3,1.21.67,2.53.91,4s.3,3,.39,4.53a46.16,46.16,0,0,1-.37,4.86c-.24,1.64-.62,
    3.29-.92,4.94l-.68,2.43a21,21,0,0,1-.75,2.37,41.52,41.52,0,0,1-4.16,8.34c-.37.61-.82,1.14-1.21,1.69s-.77,1.07-1.19,
    1.53l-1.16,1.35-1.12,1.15c-.69.73-1.37,1.29-1.91,1.76a20.27,20.27,0,0,1-1.81,1.36Z"></path>
    <path class="cls-1" d="M150.15,178.18a19.85,19.85,0,0,0,1.56-1.55c.45-.54,1-1.15,1.63-1.93l.94-1.23,
    1-1.43c.35-.48.64-1,1-1.59s.68-1.11,1-1.74a38.37,38.37,0,0,0,1.72-3.9,40.36,40.36,0,0,0,1.4-4.31,19,19,0,0,0,
    .51-2.27l.45-2.3c.1-1.57.33-3.11.33-4.65s0-3-.06-4.5-.11-2.87-.09-4.22c0-.67-.09-1.33-.12-2l-.08-1.85c0-.59,
    0-1.17,0-1.72s-.11-1.06-.13-1.55c-.08-1-.14-1.84-.16-2.55-.06-1.43,0-2.29,0-2.29l.38-.11s.42.72,1,2c.31.66.67
    ,1.47,1.06,2.41a18.68,18.68,0,0,1,1.05,3.25c.3,1.21.67,2.53.91,4s.3,3,.39,4.53a46.16,46.16,0,0,1-.37,4.86c-.24,
    1.64-.62,3.29-.92,4.94l-.68,2.43a21,21,0,0,1-.75,2.37,41.52,41.52,0,0,1-4.16,8.34c-.37.61-.82,1.14-1.21,
    1.69s-.77,1.07-1.19,1.53l-1.16,1.35-1.12,1.15c-.69.73-1.37,1.29-1.91,1.76a20.27,20.27,0,0,1-1.81,1.36Z"></path>
    <path class="cls-1" d="M163.15,172.18a19.85,19.85,0,0,0,1.56-1.55c.45-.54,1-1.15,1.63-1.93l.94-1.23,1-1.43c.35-.48.64-1,1-1.59s.68-1.11,1-1.74a38.37,38.37,0,0,0,1.72-3.9,40.36,40.36,0,0,0,1.4-4.31,19,19,0,0,0,.51-2.27l.45-2.3c.1-1.57.33-3.11.33-4.65s0-3-.06-4.5-.11-2.87-.09-4.22c0-.67-.09-1.33-.12-2l-.08-1.85c0-.59,0-1.17,0-1.72s-.11-1.06-.13-1.55c-.08-1-.14-1.84-.16-2.55-.06-1.43,0-2.29,0-2.29l.38-.11s.42.72,1,2c.31.66.67,1.47,1.06,2.41a18.68,18.68,0,0,1,1.05,3.25c.3,1.21.67,2.53.91,4s.3,3,.39,4.53a46.16,46.16,0,0,1-.37,4.86c-.24,1.64-.62,3.29-.92,4.94l-.68,2.43a21,21,0,0,1-.75,2.37,41.52,41.52,0,0,1-4.16,8.34c-.37.61-.82,1.14-1.21,1.69s-.77,1.07-1.19,1.53l-1.16,1.35-1.12,1.15c-.69.73-1.37,1.29-1.91,1.76a20.27,20.27,0,0,1-1.81,1.36Z"></path>
    <path class="cls-1" d="M176.13,163.67a17.67,17.67,0,0,0,1.38-1.4c.4-.48.92-1,1.43-1.73l.83-1.1.84-1.27c.31-.43.56-.92.85-1.42s.59-1,.84-1.55a34.4,34.4,0,0,0,1.51-3.48,36.35,36.35,0,0,0,1.22-3.84,16.82,16.82,0,0,0,.44-2l.39-2c.08-1.39.27-2.76.26-4.12s0-2.7-.08-4-.09-2.54-.06-3.74-.13-2.33-.14-3.39c0-.53,0-1,0-1.53s-.09-.94-.09-1.38c-.05-.87-.09-1.64-.09-2.28,0-1.28,0-2.05,0-2.05l.38-.11s.4.64,1,1.81c.29.58.63,1.31,1,2.14a16.28,16.28,0,0,1,1,2.89c.28,1.08.63,2.26.85,3.53s.29,2.64.36,4.05a38.88,38.88,0,0,1-.35,4.35c-.22,1.47-.57,2.95-.85,4.42l-.62,2.17a18.87,18.87,0,0,1-.68,2.12,36.93,36.93,0,0,1-3.77,7.44c-.33.54-.74,1-1.09,1.5s-.7.95-1.07,1.36l-1,1.2-1,1a23.05,23.05,0,0,1-1.72,1.56,18.11,18.11,0,0,1-1.62,1.2Z"></path>
    <path class="cls-1" d="M189.64,152a14.74,14.74,0,0,0,1.09-1.18c.31-.41.72-.87,1.13-1.45l.65-.92.66-1.06c.45-.74.88-1.57,1.31-2.46a29,29,0,0,0,1.16-2.86,31.9,31.9,0,0,0,.94-3.14c.28-1.07.42-2.2.63-3.3s.19-2.25.17-3.35-.06-2.19-.08-3.24a30.17,30.17,0,0,1,0-3c0-1-.05-1.9,0-2.76,0-.43,0-.85,0-1.25s0-.77,0-1.13c0-.72,0-1.35,0-1.88,0-1.06.14-1.7.14-1.7l.39-.11a16,16,0,0,1,.87,1.47c.26.48.55,1.07.87,1.75a13.76,13.76,0,0,1,.86,2.37c.25.89.53,1.86.72,2.91s.24,2.18.3,3.35a29.31,29.31,0,0,1-.35,3.59c-.2,1.21-.53,2.42-.76,3.64s-.66,2.39-1.1,3.53a30.94,30.94,0,0,1-3.13,6.11c-.6.86-1.2,1.66-1.79,2.35l-.86,1-.83.84a18.35,18.35,0,0,1-1.41,1.28,15.17,15.17,0,0,1-1.34,1Z"></path>
    <ellipse class="cls-1" cx="209.68" cy="113.01" rx="8.38" ry="4.22" transform="matrix(1, -0.09, 0.09, 1, -9.77, 20.39)"></ellipse>
    <ellipse class="cls-1" cx="193.16" cy="118.22" rx="8.38" ry="4.22" transform="translate(-25.51 59.3) rotate(-16.39)"></ellipse>
    <ellipse class="cls-1" cx="176.25" cy="124.59" rx="8.38" ry="4.22" transform="translate(-27.99 54.79) rotate(-16.39)"></ellipse>
    <ellipse class="cls-1" cx="159.34" cy="129.57" rx="8.38" ry="4.22" transform="translate(-23.16 35.38) rotate(-11.82)"></ellipse>
    <ellipse class="cls-1" cx="228.35" cy="113.01" rx="8.38" ry="4.22"></ellipse>
    <ellipse class="cls-1" cx="245.72" cy="117.23" rx="4.22" ry="8.38" transform="translate(50.47 306.96) rotate(-69.68)"></ellipse>
    <ellipse class="cls-1" cx="259.87" cy="127.52" rx="3.86" ry="7.68" transform="translate(-14.05 221.11) rotate(-45)"></ellipse>
    <ellipse class="cls-1" cx="269.7" cy="141.74" rx="3.37" ry="6.69" transform="translate(-34.74 153.84) rotate(-30)"></ellipse>
    <ellipse class="cls-1" cx="275.5" cy="153.13" rx="2.67" ry="5.3" transform="translate(-39.65 158.26) rotate(-30)"></ellipse>
    <ellipse class="cls-1" cx="311.58" cy="178.41" rx="5.3" ry="2.67" transform="translate(1.28 359.04) rotate(-60)"></ellipse>
    <ellipse class="cls-1" cx="299.59" cy="186.44" rx="5.3" ry="2.67" transform="translate(-36.75 79.73) rotate(-14.29)"></ellipse>
    <ellipse class="cls-1" cx="288.12" cy="183.92" rx="2.67" ry="5.3" transform="translate(-50.33 231.78) rotate(-40.6)"></ellipse>
    <ellipse class="cls-1" cx="283.65" cy="173.8" rx="2.67" ry="5.3" transform="translate(-47.31 140.2) rotate(-25.7)"></ellipse>
    <ellipse class="cls-1" cx="279.75" cy="163.4" rx="2.67" ry="5.3" transform="translate(-43.18 137.48) rotate(-25.7)"></ellipse>
    <path class="cls-1" d="M89,37.55S91.28,11,75.24,0A121,121,0,0,0,58.11,28.87S70,13.39,73.48,14.64,89,37.55,89,37.55Z"></path>
    <path class="cls-1" d="M56.5,40S46.24,15.42,26.92,13.11a121,121,0,0,0-1.79,33.53s3.31-19.21,7-19.74S56.5,40,56.5,40Z"></path>
    <path class="cls-1" d="M235.93,113.21s-12.37,26.28.8,35.26c21.91,14.93,9-8,11.41-14.53.52-1.42,7.4-9.34,7.4-9.34Z"></path>
    <path class="cls-1" d="M236.24,153.13c.1,1.75-2.91,40.84-5.95,43.07s-4.2,3,.16,3.72,4.68-1.41,3.85-2.89,6-39.27,7.46-42.2c.09-.88,0-1.2-2.46-2.18C237.77,151,236.08,150.34,236.24,153.13Z"></path>
    <path class="cls-1" d="M245.92,248.33s5.86-35.71,9.05-37.55,4.38-2.42.09-3.42-4.66.93-4,2.35-8.49,38.46-8.49,38.46-2.12,2,1.33,2.6C250.49,252.07,245.92,248.33,245.92,248.33Z"></path>
    <path class="cls-1" d="M234.1,200.34s-4.92.54-5.85,0-1.57,1.24-.67,1.62,5.25,1.93,6.51,0S234.1,200.34,234.1,200.34Z"></path>
    <path class="cls-1" d="M228.35,204.71c-1.86-2.57,3.1.12,4.22,0a4.83,4.83,0,0,0,2.91-1.8c.58-1,1.19,1.36,1.25,2.53s7.33,4.36,9.22,3.93,3.78-2.47,3.2,2-3.05-.15-3.78,0S229.54,206.35,228.35,204.71Z"></path>
    <path class="cls-1" d="M121.43,150.48s1.15,9.46.62,13,1.41,25,1.41,25S121,199,126.8,200c0,0,3.93-3.23,3.24-6s-2.51-6.38-2.89-8.69-1.13-15.26-.61-16.4,3.88-18.15,3.88-18.15a6.08,6.08,0,0,0-.6-5.54c-1.85-2.69-7.23,2.77-7.23,2.77A3.6,3.6,0,0,0,121.43,150.48Z"></path>
    <path class="cls-1" d="M104.43,167.48s-.85,8.46-1.38,12,1.41,17,1.41,17S102,209,107.8,210c0,0,3.93-5.23,3.24-8s-2.51-6.38-2.89-8.69-1.13-7.26-.61-8.4,3.88-16.15,3.88-16.15,2.46-4.23.87-7.09c-1-1.87-2.2.53-7.23-.91C103.47,160.11,104.29,166.23,104.43,167.48Z"></path>
    <path class="cls-1" d="M137.11,245.82a141.43,141.43,0,0,0-9.57-36.34s-6.31-7.15.69-8.36c0,0,5.23-5.47,3.85,8.21a92,92,0,0,0,3.65,10.95c2.07,4.87,1.77,8.36,2.27,10s.89,3.8,1.48,4.71.67.42,1,1.44,0,2,.46,3.44a9.92,9.92,0,0,1-.33,4.08l-1.65,2.93S137.88,248.29,137.11,245.82Z"></path>
    <path class="cls-1" d="M116.9,247.07s-.51-12.53-7.61-29.56c0,0-5.68-6.4.62-7.49,0,0,4.71-4.9,3.46,7.36a82.17,82.17,0,0,0,3.29,9.81c1.86,4.36.6,4.49,1,6a22.38,22.38,0,0,0,1.33,4.22c.53.82.6.38.87,1.29s0,1.77.41,3.09a8.85,8.85,0,0,1-.3,3.66l-1.49,2.63S117.6,249.28,116.9,247.07Z"></path>
    <ellipse class="cls-1" cx="130.77" cy="249.7" rx="3.81" ry="1.62" transform="translate(-151.1 249.73) rotate(-62.36)"></ellipse>
    <ellipse class="cls-1" cx="134.05" cy="251.24" rx="3.12" ry="1.33" transform="translate(-147.68 292.75) rotate(-70.3)"></ellipse>
    <ellipse class="cls-1" cx="137.21" cy="250.68" rx="2.59" ry="1.1" transform="translate(-134.22 340.08) rotate(-79.54)"></ellipse>
    <ellipse class="cls-1" cx="140.27" cy="248.59" rx="2.1" ry="1.19" transform="translate(-120.99 363.54) rotate(-84.32)"></ellipse>
    <path class="cls-1" d="M136.2,248.12c1-.18-.79-1.92-.79-2.57s0-2.86-1.78-1.56-.82,1.87-.43,2.31S133.31,248.08,136.2,248.12Z"></path>
    <path class="cls-1" d="M235.34,252.74c-1,1.72-1.12,3.43-.33,3.81s2.23-.7,3.2-2.42,1.12-3.43.33-3.81S236.31,251,235.34,252.74Z"></path>
    <path class="cls-1" d="M238.79,254.45c-.58,1.5-.49,2.9.2,3.13s1.72-.8,2.3-2.3.49-2.9-.2-3.13S239.38,252.95,238.79,254.45Z"></path>
    <path class="cls-1" d="M242.13,255.08c-.26,1.3,0,2.43.61,2.54s1.29-.87,1.55-2.17,0-2.43-.61-2.54S242.39,253.78,242.13,255.08Z"></path>
    <path class="cls-1" d="M245.08,253.22c-.11,1.07.32,2,1,2s1.28-.76,1.4-1.82-.32-2-1-2S245.2,252.16,245.08,253.22Z"></path>
    <path class="cls-1" d="M242.2,252c1-.16-.79-1.78-.79-2.38s0-2.64-1.78-1.44-.82,1.73-.43,2.13S239.31,251.93,242.2,252Z"></path>
    <path class="cls-1" d="M227.7,143.3c-.5,1.72-16.67,38.21-20.28,39.28s-5,1.37-1.12,3.62,4.88.28,4.61-1.43,19-35.64,21.41-37.93c.38-.82.41-1.15-1.57-3C229.85,141.82,228.51,140.56,227.7,143.3Z"></path>
    <path class="cls-1" d="M209.38,244.76s10.59-37.39,14-39,4.67-2.1.55-3.63-4.76.49-4.24,2.08-13.58,40-13.58,40-2.38,1.93,1,2.91C213.42,249.24,209.38,244.76,209.38,244.76Z"></path>
    <path class="cls-1" d="M209.85,188.32s-4.91-.66-5.68-1.42-1.82.85-1,1.45,4.64,3.19,6.33,1.58S209.85,188.32,209.85,188.32Z"></path>
    <path class="cls-1" d="M201.7,189.95c-.49-3.2,2.71,1.55,3.76,2a4.74,4.74,0,0,0,3.41-.29c1-.61.44,1.79,0,2.88s4.54,7.37,6.43,7.86,4.49-.49,1.92,3.34-2.65-1.55-3.37-1.76S202,192,201.7,189.95Z"></path>
    <path class="cls-1" d="M198.34,249c-1,1.72-1.12,3.43-.33,3.81s2.23-.7,3.2-2.42,1.12-3.43.33-3.81S199.31,247.33,198.34,249Z"></path>
    <path class="cls-1" d="M201.79,250.75c-.58,1.5-.49,2.9.2,3.13s1.72-.8,2.3-2.3.49-2.9-.2-3.13S202.38,249.25,201.79,250.75Z"></path>
    <path class="cls-1" d="M205.13,251.39c-.26,1.3,0,2.43.61,2.54s1.29-.87,1.55-2.17,0-2.43-.61-2.54S205.39,250.09,205.13,251.39Z"></path>
    <path class="cls-1" d="M208.08,250.11c-.11,1.07.32,2,1,2s1.28-.76,1.4-1.82-.32-2-1-2S208.2,249,208.08,250.11Z"></path>
    <path class="cls-1" d="M205.2,248.28c1-.16-.79-1.78-.79-2.38s0-2.64-1.78-1.44-.82,1.73-.43,2.13S202.31,248.24,205.2,248.28Z"></path>
    <ellipse class="cls-1" cx="112.32" cy="250.6" rx="3.31" ry="1.41" transform="translate(-161.79 233.86) rotate(-62.36)"></ellipse>
    <ellipse class="cls-1" cx="115.17" cy="251.94" rx="2.72" ry="1.16" transform="translate(-160.85 275.44) rotate(-70.3)"></ellipse>
    <ellipse class="cls-1" cx="117.92" cy="251.45" rx="2.25" ry="0.96" transform="translate(-150.77 321.74) rotate(-79.54)"></ellipse>
    <ellipse class="cls-1" cx="120.58" cy="249.63" rx="1.83" ry="1.04" transform="translate(-139.76 344.89) rotate(-84.32)"></ellipse>
    <path class="cls-1" d="M117,249.23c.9-.15-.69-1.67-.69-2.24s0-2.49-1.55-1.36-.71,1.63-.38,2S114.53,249.18,117,249.23Z"></path></svg>